<svg width="135" height="29" viewBox="0 0 135 29" fill="none" xmlns="http://www.w3.org/2000/svg">
<path d="M46.1867 8.04395H43.3047V20.9558H55.1589C56.9569 20.9558 58.4199 19.4928 58.4199 17.6948V11.305C58.4199 9.507 56.9569 8.04395 55.1589 8.04395H46.1867V8.04395ZM54.6389 18.0738H46.1867V10.926H54.6389C55.1325 10.926 55.5379 11.3314 55.5379 11.825V17.166C55.5379 17.6595 55.1325 18.065 54.6389 18.065V18.0738Z" fill="white"/>
<path d="M41.2734 20.947V8.03516H38.3914V20.947H41.2734Z" fill="white"/>
<path d="M74.1333 10.926V8.04395H63.1516H62.2438H60.2695V20.9558H62.2438H63.1516H74.1333V18.0738H63.1516V15.9409H74.1333V13.0589H63.1516V10.926H74.1333Z" fill="white"/>
<path d="M33.4954 8C33.4954 8.64339 33.4954 10.362 33.4954 10.9261C33.4954 10.9085 33.4954 10.9085 33.4954 10.8908V17.219C33.4954 17.7125 33.09 18.118 32.5964 18.118H25.9334C25.4398 18.118 25.0344 17.7125 25.0344 17.219V8H22.1523V17.739C22.1523 19.5369 23.6154 21 25.4134 21H33.1252C34.9232 21 36.3862 19.5369 36.3862 17.739V8H33.5042H33.4954Z" fill="white"/>
<path d="M11.9186 13.1029V15.7382H17.242V16.6372V17.1748C17.242 17.6684 16.8366 18.0738 16.343 18.0738H8.78983C8.29627 18.0738 7.89085 17.6684 7.89085 17.1748V11.825C7.89085 11.3314 8.29627 10.926 8.78983 10.926H19.3224V8.04395H8.26102C6.46305 8.04395 5 9.507 5 11.305V17.6948C5 19.4928 6.46305 20.9558 8.26102 20.9558H16.8542C18.6522 20.9558 20.1153 19.4928 20.1153 17.6948V13.1029H11.9186Z" fill="white"/>
<path fill-rule="evenodd" clip-rule="evenodd" d="M112.208 8.08369C112.236 8.07926 112.266 8.07715 112.294 8.07715H121.729C121.758 8.07715 121.788 8.07926 121.816 8.08369V8.08369C122.378 8.17183 122.218 8.76827 121.65 8.76827H112.374C111.805 8.76827 111.646 8.17183 112.208 8.08369V8.08369ZM98.32 8.29174C98.3732 8.16194 98.4996 8.07715 98.6398 8.07715H103.244C103.385 8.07715 103.511 8.16194 103.564 8.29174V8.29174C103.657 8.51909 103.49 8.76827 103.244 8.76827H98.6398C98.3941 8.76827 98.2269 8.51909 98.32 8.29174V8.29174ZM77.332 8.42271C77.332 8.23186 77.4867 8.07715 77.6776 8.07715H89.6077C89.6362 8.07715 89.666 8.07927 89.6943 8.08371V8.08371C90.2557 8.17192 90.0965 8.76827 89.5282 8.76827H77.6776C77.4867 8.76827 77.332 8.61355 77.332 8.42271V8.42271ZM77.6776 10.0737C77.4867 10.0737 77.332 10.2284 77.332 10.4192V10.4192C77.332 10.6101 77.4867 10.7647 77.6776 10.7647H91.9433C92.1836 10.7647 92.3671 10.5457 92.2942 10.3168V10.3168C92.2462 10.1665 92.1027 10.0737 91.945 10.0737H77.6776ZM97.8221 10.0737C97.6818 10.0737 97.5555 10.1585 97.5024 10.2883V10.2883C97.4092 10.5156 97.5764 10.7647 97.8221 10.7647H104.062C104.308 10.7647 104.475 10.5156 104.382 10.2883V10.2883C104.329 10.1585 104.202 10.0737 104.062 10.0737H97.8221ZM109.957 10.0737C109.799 10.0737 109.655 10.1665 109.607 10.3168V10.3168C109.534 10.5457 109.718 10.7647 109.958 10.7647H124.066C124.306 10.7647 124.489 10.5457 124.416 10.3168V10.3168C124.368 10.1665 124.225 10.0737 124.067 10.0737H109.957ZM124.57 12.4157C124.57 12.2249 124.415 12.0702 124.224 12.0702H122.033C121.842 12.0702 121.687 12.2249 121.687 12.4157V12.4157C121.687 12.6065 121.842 12.7612 122.033 12.7612H124.224C124.415 12.7612 124.57 12.6065 124.57 12.4157V12.4157ZM124.57 14.4122C124.57 14.2214 124.415 14.0667 124.224 14.0667H122.033C121.842 14.0667 121.687 14.2214 121.687 14.4122V14.4122C121.687 14.603 121.842 14.7577 122.033 14.7577H124.224C124.415 14.7577 124.57 14.603 124.57 14.4122V14.4122ZM124.57 16.4087C124.57 16.2178 124.415 16.0632 124.224 16.0632H122.033C121.842 16.0632 121.687 16.2178 121.687 16.4087V16.4087C121.687 16.5995 121.842 16.7542 122.033 16.7542H124.224C124.415 16.7542 124.57 16.5995 124.57 16.4087V16.4087ZM124.472 18.4879C124.528 18.2639 124.347 18.0596 124.116 18.0596H121.11C121.002 18.0596 120.896 18.0741 120.788 18.0741V18.0741H113.235V18.0741C113.128 18.0741 113.021 18.0596 112.914 18.0596H109.908C109.677 18.0596 109.496 18.2639 109.552 18.4879V18.4879C109.592 18.6485 109.741 18.7507 109.906 18.7507H124.118C124.283 18.7507 124.432 18.6485 124.472 18.4879V18.4879ZM122.541 20.7143C122.948 20.5476 122.778 20.0561 122.338 20.0561H111.686C111.246 20.0561 111.076 20.5476 111.483 20.7143V20.7143C111.537 20.7366 111.597 20.7472 111.655 20.7472H122.368C122.427 20.7472 122.487 20.7366 122.541 20.7143V20.7143ZM90.4185 20.7143C90.3641 20.7366 90.3048 20.7472 90.246 20.7472H77.6776C77.4867 20.7472 77.332 20.5925 77.332 20.4016V20.4016C77.332 20.2108 77.4867 20.0561 77.6776 20.0561H90.2158C90.6554 20.0561 90.8252 20.5477 90.4185 20.7143V20.7143ZM96.6822 20.5325C96.629 20.6623 96.5027 20.7472 96.3624 20.7472H93.7337C93.4881 20.7472 93.3209 20.498 93.414 20.2707V20.2707C93.4671 20.1409 93.5935 20.0561 93.7337 20.0561H96.3624C96.608 20.0561 96.7752 20.3052 96.6822 20.5325V20.5325ZM108.47 20.2707C108.563 20.498 108.396 20.7472 108.15 20.7472H105.522C105.381 20.7472 105.255 20.6623 105.202 20.5325V20.5325C105.109 20.3052 105.276 20.0561 105.522 20.0561H108.15C108.291 20.0561 108.417 20.1409 108.47 20.2707V20.2707ZM107.333 18.7507C107.578 18.7507 107.746 18.5015 107.652 18.2742V18.2742C107.599 18.1444 107.473 18.0596 107.333 18.0596H94.5514C94.4112 18.0596 94.2848 18.1444 94.2317 18.2742V18.2742C94.1386 18.5015 94.3057 18.7507 94.5514 18.7507H107.333ZM91.9953 18.7507C92.1608 18.7507 92.3095 18.6485 92.3498 18.488V18.488C92.406 18.2639 92.2249 18.0596 91.994 18.0596H88.766C88.7346 18.0632 88.7028 18.065 88.6707 18.0652C88.6682 18.0652 88.6663 18.0672 88.6663 18.0696V18.0696C88.6663 18.072 88.6643 18.074 88.6619 18.074H80.2212C80.2173 18.074 80.2141 18.0708 80.2141 18.0668V18.0668C80.2141 18.0629 80.2108 18.0596 80.2069 18.0596H77.6776C77.4867 18.0596 77.332 18.2143 77.332 18.4052V18.4052C77.332 18.596 77.4867 18.7507 77.6776 18.7507H91.9953ZM77.332 16.4087C77.332 16.5995 77.4867 16.7542 77.6776 16.7542H79.8685C80.0594 16.7542 80.2141 16.5995 80.2141 16.4087V16.4087C80.2141 16.2178 80.0594 16.0632 79.8685 16.0632H77.6776C77.4867 16.0632 77.332 16.2178 77.332 16.4087V16.4087ZM77.332 14.4122C77.332 14.603 77.4867 14.7577 77.6776 14.7577H79.8685C80.0594 14.7577 80.2141 14.603 80.2141 14.4122V14.4122C80.2141 14.2214 80.0594 14.0667 79.8685 14.0667H77.6776C77.4867 14.0667 77.332 14.2214 77.332 14.4122V14.4122ZM77.332 12.4157C77.332 12.6065 77.4867 12.7612 77.6776 12.7612H79.8685C80.0594 12.7612 80.2141 12.6065 80.2141 12.4157V12.4157C80.2141 12.2249 80.0594 12.0702 79.8685 12.0702H77.6776C77.4867 12.0702 77.332 12.2249 77.332 12.4157V12.4157ZM89.9108 12.0702C89.7199 12.0702 89.5653 12.2249 89.5653 12.4157V12.4157C89.5653 12.6065 89.7199 12.7612 89.9108 12.7612H92.1018C92.2926 12.7612 92.4473 12.6065 92.4473 12.4157V12.4157C92.4473 12.2249 92.2926 12.0702 92.1018 12.0702H89.9108ZM97.0044 12.0702C96.8642 12.0702 96.7378 12.155 96.6847 12.2848V12.2848C96.5916 12.5121 96.7588 12.7612 97.0044 12.7612H99.8262C99.9605 12.7612 100.083 12.6835 100.139 12.5618V12.5618C100.246 12.3327 100.079 12.0702 99.8262 12.0702H97.0044ZM102.058 12.0702C101.805 12.0702 101.638 12.3327 101.745 12.5618V12.5618C101.802 12.6835 101.924 12.7612 102.058 12.7612H104.88C105.125 12.7612 105.293 12.5121 105.199 12.2848V12.2848C105.146 12.155 105.02 12.0702 104.88 12.0702H102.058ZM109.8 12.0702C109.609 12.0702 109.454 12.2249 109.454 12.4157V12.4157C109.454 12.6065 109.609 12.7612 109.8 12.7612H111.991C112.182 12.7612 112.336 12.6065 112.336 12.4157V12.4157C112.336 12.2249 112.182 12.0702 111.991 12.0702H109.8ZM112.336 14.4122C112.336 14.2214 112.182 14.0667 111.991 14.0667H109.8C109.609 14.0667 109.454 14.2214 109.454 14.4122V14.4122C109.454 14.603 109.609 14.7577 109.8 14.7577H111.991C112.182 14.7577 112.336 14.603 112.336 14.4122V14.4122ZM112.336 16.4087C112.336 16.2178 112.182 16.0632 111.991 16.0632H109.8C109.609 16.0632 109.454 16.2178 109.454 16.4087V16.4087C109.454 16.5995 109.609 16.7542 109.8 16.7542H111.991C112.182 16.7542 112.336 16.5995 112.336 16.4087V16.4087ZM106.515 16.7542C106.761 16.7542 106.928 16.5051 106.835 16.2777V16.2777C106.782 16.1479 106.655 16.0632 106.515 16.0632H95.3691C95.2288 16.0632 95.1025 16.1479 95.0493 16.2777V16.2777C94.9562 16.5051 95.1234 16.7542 95.3691 16.7542H106.515ZM92.1018 16.7542C92.2926 16.7542 92.4473 16.5995 92.4473 16.4087V16.4087C92.4473 16.2178 92.2926 16.0632 92.1018 16.0632H89.9108C89.7199 16.0632 89.5653 16.2178 89.5653 16.4087V16.4087C89.5653 16.5995 89.7199 16.7542 89.9108 16.7542H92.1018ZM89.5653 14.4122C89.5653 14.603 89.7199 14.7577 89.9108 14.7577H92.1018C92.2926 14.7577 92.4473 14.603 92.4473 14.4122V14.4122C92.4473 14.2214 92.2926 14.0667 92.1018 14.0667H89.9108C89.7199 14.0667 89.5653 14.2214 89.5653 14.4122V14.4122ZM96.1868 14.0667C96.0465 14.0667 95.9202 14.1514 95.867 14.2812V14.2812C95.7739 14.5086 95.9411 14.7577 96.1868 14.7577H98.8946C99.0289 14.7577 99.151 14.68 99.2077 14.5583V14.5583C99.3146 14.3292 99.1474 14.0667 98.8946 14.0667H96.1868ZM102.99 14.0667C102.737 14.0667 102.57 14.3292 102.676 14.5583V14.5583C102.733 14.68 102.855 14.7577 102.99 14.7577H105.697C105.943 14.7577 106.11 14.5086 106.017 14.2812V14.2812C105.964 14.1514 105.838 14.0667 105.697 14.0667H102.99Z" fill="white"/>
</svg>
